<svg width="107" height="107" viewBox="0 0 107 107" fill="none" xmlns="http://www.w3.org/2000/svg">
<g clip-path="url(#clip0_4_1251)">
<path d="M106.363 97.3649L98.3334 56.0768C98.0972 54.8068 96.9808 53.8811 95.6925 53.8811H91.3341L90.9476 51.5132C90.7544 50.3508 89.8527 49.4466 88.6933 49.2744C88.4786 49.2314 88.2853 49.2098 88.0706 49.1883C87.9418 49.1668 87.7915 49.1453 87.6627 49.1453L86.6321 48.9946L86.8468 47.9828C87.4051 45.3996 86.9542 42.7519 85.5801 40.4916L85.3224 40.0826L85.4942 39.6305C86.1813 37.8438 86.0524 35.8418 85.1507 34.1627C84.2489 32.4837 82.6387 31.2782 80.7708 30.8692L80.1481 30.74L80.0408 30.0942C78.7526 23.2057 72.7409 18.1685 65.7631 18.1254C65.6987 18.1254 65.6128 18.1254 65.5484 18.1469C65.4625 18.1469 65.3767 18.1685 65.2908 18.1685L64.7326 18.19L64.432 17.7164C63.3799 16.0804 61.6838 15.0041 59.7515 14.7457C57.8192 14.5089 55.9083 15.1332 54.4913 16.4679L53.9331 16.9845L53.289 16.5755C51.3996 15.3485 49.2096 14.7027 46.9767 14.7027C43.3483 14.7242 39.9775 16.3818 37.7446 19.2663L37.3366 19.783L36.714 19.5892C34.3093 18.9004 31.7758 19.3094 29.7362 20.7517C27.6965 22.1939 26.4298 24.4542 26.2795 26.9513L26.2365 27.5541L25.6783 27.7909C23.2307 28.8241 21.6634 31.2136 21.6419 33.8614C21.6419 34.3134 21.7063 34.7655 21.7922 35.2176L21.8781 35.6266L21.6419 35.971C19.3231 39.4798 18.722 43.8067 19.9887 47.8106L20.3322 48.9085L19.1943 49.0592C19.0011 49.0807 18.7864 49.1022 18.5932 49.1453C18.3141 49.1883 18.0135 49.2314 17.7344 49.2529C16.575 49.4251 15.6517 50.3292 15.4585 51.4917L15.0721 53.8596H10.7565C9.46834 53.8596 8.35189 54.7852 8.11572 56.0553L0.0858758 97.3649C-0.171766 98.6995 0.171757 100.077 1.03056 101.132C1.88937 102.187 3.17758 102.79 4.5302 102.79H43.2839L43.563 103.263C44.7224 105.179 48.6085 106.471 53.2031 106.471C57.7762 106.471 61.6194 105.179 62.8002 103.263L63.0794 102.811H101.876C103.229 102.811 104.495 102.208 105.376 101.154C106.277 100.077 106.621 98.6995 106.363 97.3649ZM22.0928 38.8555L22.651 37.5209L23.6601 38.5542C24.0036 38.9201 24.4116 39.2215 24.841 39.5013C25.2489 39.7381 25.7642 39.609 26.0218 39.2C26.258 38.8125 26.1507 38.3389 25.8071 38.0591L25.7427 38.016C23.8963 36.8966 22.9945 34.6579 23.5742 32.5698C24.1539 30.4817 26.0648 29.0179 28.2118 29.0179H28.2333C29.7362 29.0179 31.1747 29.7498 32.0764 30.9768C32.2482 31.2136 32.5702 31.3428 32.8708 31.3212C33.1714 31.2782 33.4505 31.0844 33.5579 30.8046C33.6867 30.5247 33.6438 30.2018 33.4505 29.9435C32.377 28.5012 30.7238 27.5756 28.9418 27.3819L27.8683 27.2742L28.083 26.2194C28.7271 23.2272 31.4109 21.0315 34.4596 21.0315H34.4811H34.5026C34.7602 21.053 35.0178 21.0746 35.2755 21.1176L36.4563 21.3114L36.0269 22.4307C35.8981 22.7752 35.7693 23.1196 35.6834 23.464C35.5761 23.9161 35.8552 24.3681 36.3061 24.4973C36.7569 24.6049 37.2293 24.3466 37.3581 23.8946C37.5943 23.012 37.9378 22.1724 38.4101 21.3544C40.1922 18.3407 43.4771 16.4679 46.9553 16.4463C48.8876 16.4463 50.734 17.0276 52.3443 18.0824L52.9884 18.4914L52.7307 19.2017C52.4946 19.8691 52.3657 20.5795 52.3657 21.2898C52.3657 21.7634 52.7522 22.1509 53.2245 22.1509C53.6969 22.1509 54.0834 21.7634 54.0834 21.2898C54.0834 18.6205 56.2518 16.4463 58.8927 16.4463C61.555 16.4463 63.7235 18.6205 63.7235 21.2898C63.7235 21.7634 64.1099 22.1509 64.5823 22.1509C65.0546 22.1509 65.4411 21.7634 65.4411 21.2898C65.4411 21.2683 65.4411 21.2253 65.4196 21.2037C65.3981 21.1176 65.3981 21.0315 65.3981 20.9239L65.3337 19.8475L66.4072 19.9121C72.0324 20.2566 76.8632 24.3466 78.1299 29.8574L78.3446 30.7615L77.4644 31.0199C76.7129 31.2351 76.0259 31.5795 75.4032 32.0531C75.1671 32.2469 75.0168 32.5483 75.0597 32.8496C75.1027 33.151 75.2959 33.4308 75.575 33.5385C75.8541 33.6676 76.1976 33.6246 76.4338 33.4308C78.2588 32.0747 80.8137 32.1823 82.5099 33.6892C84.206 35.196 84.6354 37.7146 83.519 39.6951C83.0251 40.5777 82.2737 41.2665 81.3505 41.6971C81.0069 41.8693 80.8137 42.2783 80.8996 42.6658C80.9855 43.0532 81.329 43.3331 81.7369 43.3546C81.8443 43.3546 81.9731 43.3331 82.1019 43.2685C82.5099 43.0748 82.9178 42.8164 83.2828 42.5151L84.3348 41.6755L84.7857 42.9456C85.8592 45.9809 85.1936 49.3605 83.0466 51.75L82.9822 51.8146C80.3414 54.6991 76.0259 55.4741 72.5048 53.7304L72.4833 53.7089C72.1398 53.5152 71.7962 53.3214 71.4742 53.0846L70.7013 52.5249L71.2595 51.75C72.3974 50.1355 72.5692 48.0474 71.6674 46.2822C71.5386 46.0024 71.2595 45.8302 70.9374 45.8086C70.6369 45.7871 70.3363 45.9378 70.1645 46.1961C69.9927 46.4544 69.9713 46.7989 70.1216 47.0572C70.9374 48.6932 70.4221 50.7167 68.9192 51.75C68.0175 52.3527 66.944 52.5249 65.9134 52.2666C64.8829 52.0083 64.024 51.3195 63.5302 50.3723C63.3799 50.0709 63.1008 49.8987 62.8002 49.8772C62.4997 49.8556 62.1991 50.0063 62.0273 50.2647C61.8556 50.523 61.8341 50.8459 61.9844 51.1257C62.9076 52.977 64.754 54.1394 66.8152 54.1394H66.8366C67.5022 54.1394 68.1463 54.0103 68.7689 53.752L69.3272 53.5367L69.778 53.9242C70.3792 54.4408 71.0233 54.8929 71.7318 55.2588C74.1365 56.5074 76.8847 56.7657 79.4611 55.9692L82.2307 55.1297L80.5131 57.4761C78.5379 60.1669 75.6394 61.9536 72.3545 62.4918C71.9251 62.5563 71.603 62.9654 71.6245 63.4174C71.6674 63.8695 72.0324 64.2139 72.4833 64.2139C72.5262 64.2139 72.5692 64.2139 72.6336 64.2139C73.6641 64.0417 74.6732 63.7403 75.6609 63.3313L76.4553 62.9869L76.8847 63.7403C77.4858 64.7951 77.9582 65.9145 78.3232 67.0769C78.409 67.3568 78.452 67.6582 78.4735 67.9595C78.4735 69.1435 77.765 70.2198 76.6914 70.6719L76.67 70.6934C76.305 70.8226 75.94 70.9087 75.575 70.9087C74.6732 70.9087 73.8144 70.4997 73.2133 69.7893C71.9036 68.2609 70.2075 67.12 68.2966 66.5172C64.4534 65.2256 62.4567 63.934 61.5979 62.2119L60.9753 60.9849L62.3279 60.8127C63.2296 60.7051 64.1099 60.5113 64.9902 60.253C65.2693 60.1669 65.5055 59.9301 65.5699 59.6287C65.6343 59.3274 65.5484 59.0045 65.3123 58.7892C65.0761 58.5739 64.754 58.5093 64.4749 58.5955C63.3799 58.9399 62.242 59.1336 61.0826 59.2197C58.8927 59.3919 56.6383 59.0475 54.5986 58.2295C54.2551 58.1003 53.8687 58.1864 53.6325 58.4663C50.6052 61.9536 45.5382 62.5348 41.8024 59.8225C38.0881 57.1101 37.0575 52.0944 39.4192 48.1335C39.591 47.8752 39.591 47.5308 39.4407 47.2509C39.2904 46.9711 39.0113 46.7989 38.6892 46.7989C38.3887 46.7989 38.0881 46.9496 37.9378 47.2294C37.5513 47.8967 37.2293 48.6286 36.9716 49.3821L36.7569 50.0924L36.0055 50.0494C34.0732 49.9418 32.5273 48.3488 32.4844 46.3899V46.3253C32.4844 46.11 32.3985 45.8732 32.2267 45.7225C32.0764 45.5718 31.8403 45.4857 31.6256 45.4857C31.1317 45.4857 30.7453 45.8947 30.7453 46.3683C30.7453 49.1453 32.8279 51.4486 35.5761 51.75L36.4349 51.8361V52.6972C36.4349 53.2569 36.4993 53.8165 36.5852 54.3762L36.7355 55.2803L35.8337 55.4741C31.3679 56.4428 26.7948 54.8498 23.8748 51.3195C20.9764 47.8752 20.2893 43.0532 22.0928 38.8555ZM43.2624 101.024H4.5302C3.69286 101.024 2.89847 100.658 2.36171 99.9911C1.82496 99.3453 1.61026 98.5058 1.78202 97.6878L9.96215 55.6032H14.8144L8.88865 91.3805C8.73835 92.3061 9.08188 93.2318 9.79039 93.856C10.4989 94.4803 11.4651 94.674 12.3668 94.3942C22.2431 91.1867 32.8708 90.5194 43.0906 92.4353L43.9494 92.6075L43.2624 101.024ZM61.3617 102.359C60.6318 103.5 57.3898 104.705 53.2245 104.705C49.0593 104.705 45.8173 103.521 45.0874 102.359L44.9156 102.079L45.667 92.995L46.762 93.2748C48.8232 93.7915 50.8414 94.4803 52.7951 95.2983L52.8381 95.3198C52.9454 95.3844 53.0957 95.406 53.2245 95.406C53.3534 95.406 53.4822 95.3844 53.5895 95.3198L53.6325 95.2983C55.5863 94.4588 57.6259 93.7699 59.6656 93.2533L60.7606 92.9734L61.512 102.079L61.3617 102.359ZM55.3501 92.7367L54.0834 93.1672V68.8852C54.0834 68.4331 53.7613 68.0241 53.3104 67.981C52.7951 67.938 52.3443 68.3255 52.3443 68.8421V93.1887L51.0775 92.7582C38.4316 88.5174 24.4975 88.5174 11.8515 92.7367C11.7442 92.7797 11.6368 92.7797 11.5509 92.7797C10.9713 92.7797 10.4989 92.2631 10.6063 91.6603L17.3264 51.0611L18.0135 50.9535C18.7005 50.8459 19.4305 50.7598 20.1175 50.6737L21.234 50.523L21.556 51.0611C24.7336 56.1414 30.7668 58.5955 36.5637 57.1747L37.2937 57.0025L37.6372 57.6698C39.1616 60.5544 41.9742 62.5994 45.1732 63.1591C48.3723 63.6973 51.7216 62.707 54.1048 60.4683L54.5128 60.0808L55.0495 60.2315C56.2304 60.5759 57.4327 60.7912 58.6565 60.8773L59.3435 60.9203L59.5153 61.5877C60.3097 64.5798 62.5855 66.4096 67.6954 68.1317C69.3057 68.6269 70.7442 69.5955 71.8392 70.8871C72.7624 71.985 74.115 72.6308 75.5321 72.6308C76.1547 72.6308 76.7559 72.5016 77.3141 72.2649C79.0317 71.5329 80.1481 69.8323 80.1481 67.9595C80.1481 67.4644 80.0623 66.9908 79.912 66.5172C79.5255 65.2687 78.9887 64.0847 78.3661 62.9438L77.9367 62.1904L78.6452 61.6738C81.5652 59.5641 83.6048 56.4643 84.3563 52.9339L84.3992 52.6972L84.5495 52.5034C84.9145 52.0729 85.2366 51.6208 85.5157 51.1472L85.8377 50.6091L86.8683 50.7382C87.3406 50.8028 87.8559 50.8674 88.3497 50.9535L89.0368 51.0611L95.757 91.6388C95.8643 92.3492 95.1773 92.9519 94.4902 92.7151C88.1565 90.6055 81.5222 89.5292 74.8879 89.5292C68.3181 89.5722 61.6838 90.627 55.3501 92.7367ZM104.066 100.013C103.529 100.658 102.735 101.046 101.897 101.046H63.1867L62.4997 92.6075L63.3585 92.4353C73.5783 90.4979 84.2275 91.1867 94.1037 94.4157C94.984 94.6956 95.9502 94.4803 96.6802 93.856C97.3887 93.2318 97.7322 92.3061 97.5819 91.3805L91.6562 55.6248H96.5299L104.71 97.7093C104.817 98.5273 104.603 99.3669 104.066 100.013Z" fill="#303344"/>
<path d="M106.363 97.3649L98.3334 56.0768C98.0972 54.8068 96.9808 53.8811 95.6925 53.8811H91.3341L90.9476 51.5132C90.7544 50.3508 89.8527 49.4466 88.6933 49.2744C88.4786 49.2314 88.2853 49.2098 88.0706 49.1883C87.9418 49.1668 87.7915 49.1453 87.6627 49.1453L86.6321 48.9946L86.8468 47.9828C87.4051 45.3996 86.9542 42.7519 85.5801 40.4916L85.3224 40.0826L85.4942 39.6305C86.1813 37.8438 86.0524 35.8418 85.1507 34.1627C84.2489 32.4837 82.6387 31.2782 80.7708 30.8692L80.1481 30.74L80.0408 30.0942C78.7526 23.2057 72.7409 18.1685 65.7631 18.1254C65.6987 18.1254 65.6128 18.1254 65.5484 18.1469C65.4625 18.1469 65.3767 18.1685 65.2908 18.1685L64.7326 18.19L64.432 17.7164C63.3799 16.0804 61.6838 15.0041 59.7515 14.7457C57.8192 14.5089 55.9083 15.1332 54.4913 16.4679L53.9331 16.9845L53.289 16.5755C51.3996 15.3485 49.2096 14.7027 46.9767 14.7027C43.3483 14.7242 39.9775 16.3818 37.7446 19.2663L37.3366 19.783L36.714 19.5892C34.3093 18.9004 31.7758 19.3094 29.7362 20.7517C27.6965 22.1939 26.4298 24.4542 26.2795 26.9513L26.2365 27.5541L25.6783 27.7909C23.2307 28.8241 21.6634 31.2136 21.6419 33.8614C21.6419 34.3134 21.7063 34.7655 21.7922 35.2176L21.8781 35.6266L21.6419 35.971C19.3231 39.4798 18.722 43.8067 19.9887 47.8106L20.3322 48.9085L19.1943 49.0592C19.0011 49.0807 18.7864 49.1022 18.5932 49.1453C18.3141 49.1883 18.0135 49.2314 17.7344 49.2529C16.575 49.4251 15.6517 50.3292 15.4585 51.4917L15.0721 53.8596H10.7565C9.46834 53.8596 8.35189 54.7852 8.11572 56.0553L0.0858758 97.3649C-0.171766 98.6995 0.171757 100.077 1.03056 101.132C1.88937 102.187 3.17758 102.79 4.5302 102.79H43.2839L43.563 103.263C44.7224 105.179 48.6085 106.471 53.2031 106.471C57.7762 106.471 61.6194 105.179 62.8002 103.263L63.0794 102.811H101.876C103.229 102.811 104.495 102.208 105.376 101.154C106.277 100.077 106.621 98.6995 106.363 97.3649ZM22.0928 38.8555L22.651 37.5209L23.6601 38.5542C24.0036 38.9201 24.4116 39.2215 24.841 39.5013C25.2489 39.7381 25.7642 39.609 26.0218 39.2C26.258 38.8125 26.1507 38.3389 25.8071 38.0591L25.7427 38.016C23.8963 36.8966 22.9945 34.6579 23.5742 32.5698C24.1539 30.4817 26.0648 29.0179 28.2118 29.0179H28.2333C29.7362 29.0179 31.1747 29.7498 32.0764 30.9768C32.2482 31.2136 32.5702 31.3428 32.8708 31.3212C33.1714 31.2782 33.4505 31.0844 33.5579 30.8046C33.6867 30.5247 33.6438 30.2018 33.4505 29.9435C32.377 28.5012 30.7238 27.5756 28.9418 27.3819L27.8683 27.2742L28.083 26.2194C28.7271 23.2272 31.4109 21.0315 34.4596 21.0315H34.4811H34.5026C34.7602 21.053 35.0178 21.0746 35.2755 21.1176L36.4563 21.3114L36.0269 22.4307C35.8981 22.7752 35.7693 23.1196 35.6834 23.464C35.5761 23.9161 35.8552 24.3681 36.3061 24.4973C36.7569 24.6049 37.2293 24.3466 37.3581 23.8946C37.5943 23.012 37.9378 22.1724 38.4101 21.3544C40.1922 18.3407 43.4771 16.4679 46.9553 16.4463C48.8876 16.4463 50.734 17.0276 52.3443 18.0824L52.9884 18.4914L52.7307 19.2017C52.4946 19.8691 52.3657 20.5795 52.3657 21.2898C52.3657 21.7634 52.7522 22.1509 53.2245 22.1509C53.6969 22.1509 54.0834 21.7634 54.0834 21.2898C54.0834 18.6205 56.2518 16.4463 58.8927 16.4463C61.555 16.4463 63.7235 18.6205 63.7235 21.2898C63.7235 21.7634 64.1099 22.1509 64.5823 22.1509C65.0546 22.1509 65.4411 21.7634 65.4411 21.2898C65.4411 21.2683 65.4411 21.2253 65.4196 21.2037C65.3981 21.1176 65.3981 21.0315 65.3981 20.9239L65.3337 19.8475L66.4072 19.9121C72.0324 20.2566 76.8632 24.3466 78.1299 29.8574L78.3446 30.7615L77.4644 31.0199C76.7129 31.2351 76.0259 31.5795 75.4032 32.0531C75.1671 32.2469 75.0168 32.5483 75.0597 32.8496C75.1027 33.151 75.2959 33.4308 75.575 33.5385C75.8541 33.6676 76.1976 33.6246 76.4338 33.4308C78.2588 32.0747 80.8137 32.1823 82.5099 33.6892C84.206 35.196 84.6354 37.7146 83.519 39.6951C83.0251 40.5777 82.2737 41.2665 81.3505 41.6971C81.0069 41.8693 80.8137 42.2783 80.8996 42.6658C80.9855 43.0532 81.329 43.3331 81.7369 43.3546C81.8443 43.3546 81.9731 43.3331 82.1019 43.2685C82.5099 43.0748 82.9178 42.8164 83.2828 42.5151L84.3348 41.6755L84.7857 42.9456C85.8592 45.9809 85.1936 49.3605 83.0466 51.75L82.9822 51.8146C80.3414 54.6991 76.0259 55.4741 72.5048 53.7304L72.4833 53.7089C72.1398 53.5152 71.7962 53.3214 71.4742 53.0846L70.7013 52.5249L71.2595 51.75C72.3974 50.1355 72.5692 48.0474 71.6674 46.2822C71.5386 46.0024 71.2595 45.8302 70.9374 45.8086C70.6369 45.7871 70.3363 45.9378 70.1645 46.1961C69.9927 46.4544 69.9713 46.7989 70.1216 47.0572C70.9374 48.6932 70.4221 50.7167 68.9192 51.75C68.0175 52.3527 66.944 52.5249 65.9134 52.2666C64.8829 52.0083 64.024 51.3195 63.5302 50.3723C63.3799 50.0709 63.1008 49.8987 62.8002 49.8772C62.4997 49.8556 62.1991 50.0063 62.0273 50.2647C61.8556 50.523 61.8341 50.8459 61.9844 51.1257C62.9076 52.977 64.754 54.1394 66.8152 54.1394H66.8366C67.5022 54.1394 68.1463 54.0103 68.7689 53.752L69.3272 53.5367L69.778 53.9242C70.3792 54.4408 71.0233 54.8929 71.7318 55.2588C74.1365 56.5074 76.8847 56.7657 79.4611 55.9692L82.2307 55.1297L80.5131 57.4761C78.5379 60.1669 75.6394 61.9536 72.3545 62.4918C71.9251 62.5563 71.603 62.9654 71.6245 63.4174C71.6674 63.8695 72.0324 64.2139 72.4833 64.2139C72.5262 64.2139 72.5692 64.2139 72.6336 64.2139C73.6641 64.0417 74.6732 63.7403 75.6609 63.3313L76.4553 62.9869L76.8847 63.7403C77.4858 64.7951 77.9582 65.9145 78.3232 67.0769C78.409 67.3568 78.452 67.6582 78.4735 67.9595C78.4735 69.1435 77.765 70.2198 76.6914 70.6719L76.67 70.6934C76.305 70.8226 75.94 70.9087 75.575 70.9087C74.6732 70.9087 73.8144 70.4997 73.2133 69.7893C71.9036 68.2609 70.2075 67.12 68.2966 66.5172C64.4534 65.2256 62.4567 63.934 61.5979 62.2119L60.9753 60.9849L62.3279 60.8127C63.2296 60.7051 64.1099 60.5113 64.9902 60.253C65.2693 60.1669 65.5055 59.9301 65.5699 59.6287C65.6343 59.3274 65.5484 59.0045 65.3123 58.7892C65.0761 58.5739 64.754 58.5093 64.4749 58.5955C63.3799 58.9399 62.242 59.1336 61.0826 59.2197C58.8927 59.3919 56.6383 59.0475 54.5986 58.2295C54.2551 58.1003 53.8687 58.1864 53.6325 58.4663C50.6052 61.9536 45.5382 62.5348 41.8024 59.8225C38.0881 57.1101 37.0575 52.0944 39.4192 48.1335C39.591 47.8752 39.591 47.5308 39.4407 47.2509C39.2904 46.9711 39.0113 46.7989 38.6892 46.7989C38.3887 46.7989 38.0881 46.9496 37.9378 47.2294C37.5513 47.8967 37.2293 48.6286 36.9716 49.3821L36.7569 50.0924L36.0055 50.0494C34.0732 49.9418 32.5273 48.3488 32.4844 46.3899V46.3253C32.4844 46.11 32.3985 45.8732 32.2267 45.7225C32.0764 45.5718 31.8403 45.4857 31.6256 45.4857C31.1317 45.4857 30.7453 45.8947 30.7453 46.3683C30.7453 49.1453 32.8279 51.4486 35.5761 51.75L36.4349 51.8361V52.6972C36.4349 53.2569 36.4993 53.8165 36.5852 54.3762L36.7355 55.2803L35.8337 55.4741C31.3679 56.4428 26.7948 54.8498 23.8748 51.3195C20.9764 47.8752 20.2893 43.0532 22.0928 38.8555ZM43.2624 101.024H4.5302C3.69286 101.024 2.89847 100.658 2.36171 99.9911C1.82496 99.3453 1.61026 98.5058 1.78202 97.6878L9.96215 55.6032H14.8144L8.88865 91.3805C8.73835 92.3061 9.08188 93.2318 9.79039 93.856C10.4989 94.4803 11.4651 94.674 12.3668 94.3942C22.2431 91.1867 32.8708 90.5194 43.0906 92.4353L43.9494 92.6075L43.2624 101.024ZM61.3617 102.359C60.6318 103.5 57.3898 104.705 53.2245 104.705C49.0593 104.705 45.8173 103.521 45.0874 102.359L44.9156 102.079L45.667 92.995L46.762 93.2748C48.8232 93.7915 50.8414 94.4803 52.7951 95.2983L52.8381 95.3198C52.9454 95.3844 53.0957 95.406 53.2245 95.406C53.3534 95.406 53.4822 95.3844 53.5895 95.3198L53.6325 95.2983C55.5863 94.4588 57.6259 93.7699 59.6656 93.2533L60.7606 92.9734L61.512 102.079L61.3617 102.359ZM55.3501 92.7367L54.0834 93.1672V68.8852C54.0834 68.4331 53.7613 68.0241 53.3104 67.981C52.7951 67.938 52.3443 68.3255 52.3443 68.8421V93.1887L51.0775 92.7582C38.4316 88.5174 24.4975 88.5174 11.8515 92.7367C11.7442 92.7797 11.6368 92.7797 11.5509 92.7797C10.9713 92.7797 10.4989 92.2631 10.6063 91.6603L17.3264 51.0611L18.0135 50.9535C18.7005 50.8459 19.4305 50.7598 20.1175 50.6737L21.234 50.523L21.556 51.0611C24.7336 56.1414 30.7668 58.5955 36.5637 57.1747L37.2937 57.0025L37.6372 57.6698C39.1616 60.5544 41.9742 62.5994 45.1732 63.1591C48.3723 63.6973 51.7216 62.707 54.1048 60.4683L54.5128 60.0808L55.0495 60.2315C56.2304 60.5759 57.4327 60.7912 58.6565 60.8773L59.3435 60.9203L59.5153 61.5877C60.3097 64.5798 62.5855 66.4096 67.6954 68.1317C69.3057 68.6269 70.7442 69.5955 71.8392 70.8871C72.7624 71.985 74.115 72.6308 75.5321 72.6308C76.1547 72.6308 76.7559 72.5016 77.3141 72.2649C79.0317 71.5329 80.1481 69.8323 80.1481 67.9595C80.1481 67.4644 80.0623 66.9908 79.912 66.5172C79.5255 65.2687 78.9887 64.0847 78.3661 62.9438L77.9367 62.1904L78.6452 61.6738C81.5652 59.5641 83.6048 56.4643 84.3563 52.9339L84.3992 52.6972L84.5495 52.5034C84.9145 52.0729 85.2366 51.6208 85.5157 51.1472L85.8377 50.6091L86.8683 50.7382C87.3406 50.8028 87.8559 50.8674 88.3497 50.9535L89.0368 51.0611L95.757 91.6388C95.8643 92.3492 95.1773 92.9519 94.4902 92.7151C88.1565 90.6055 81.5222 89.5292 74.8879 89.5292C68.3181 89.5722 61.6838 90.627 55.3501 92.7367ZM104.066 100.013C103.529 100.658 102.735 101.046 101.897 101.046H63.1867L62.4997 92.6075L63.3585 92.4353C73.5783 90.4979 84.2275 91.1867 94.1037 94.4157C94.984 94.6956 95.9502 94.4803 96.6802 93.856C97.3887 93.2318 97.7322 92.3061 97.5819 91.3805L91.6562 55.6248H96.5299L104.71 97.7093C104.817 98.5273 104.603 99.3669 104.066 100.013Z" fill="black" fill-opacity="0.2"/>
<path d="M61.5335 102.079L61.3618 102.359C60.6318 103.5 57.3898 104.705 53.2246 104.705C49.0594 104.705 45.8174 103.521 45.0874 102.359L44.9156 102.079L45.6671 92.995L46.7621 93.2748C48.8232 93.7915 50.8414 94.4803 52.7952 95.2983L52.8381 95.3198C52.9455 95.3844 53.0958 95.406 53.2246 95.406C53.3534 95.406 53.4822 95.3844 53.5896 95.3198L53.6325 95.2983C55.5863 94.4588 57.626 93.7699 59.6656 93.2533L60.7606 92.9734L61.5335 102.079Z" fill="#303344"/>
<path d="M61.5335 102.079L61.3618 102.359C60.6318 103.5 57.3898 104.705 53.2246 104.705C49.0594 104.705 45.8174 103.521 45.0874 102.359L44.9156 102.079L45.6671 92.995L46.7621 93.2748C48.8232 93.7915 50.8414 94.4803 52.7952 95.2983L52.8381 95.3198C52.9455 95.3844 53.0958 95.406 53.2246 95.406C53.3534 95.406 53.4822 95.3844 53.5896 95.3198L53.6325 95.2983C55.5863 94.4588 57.626 93.7699 59.6656 93.2533L60.7606 92.9734L61.5335 102.079Z" fill="black" fill-opacity="0.2"/>
<path d="M65.0546 37.7792C64.2602 41.9123 60.9323 45.1413 56.81 45.8302L56.2518 45.9163L56.0586 46.4329C54.8777 49.5973 51.8289 51.7069 48.4581 51.7069H48.4366C47.9643 51.7069 47.5778 51.3194 47.5778 50.8459C47.5778 50.3723 47.9643 49.9848 48.4366 49.9848C50.5193 49.9848 52.473 48.973 53.6754 47.2724L54.5342 46.067L53.0957 45.7656C51.0131 45.3135 49.1666 44.2587 47.7281 42.6657C47.5778 42.4935 47.5134 42.2998 47.5134 42.0845C47.5134 41.8477 47.6208 41.6109 47.7925 41.4387C48.1575 41.1158 48.6943 41.1374 49.0163 41.5033C51.8719 44.5601 56.445 45.0767 59.9232 42.7519C61.7267 41.5033 62.9505 39.6305 63.3584 37.4563C63.4014 37.1549 63.6161 36.8966 63.9166 36.789C64.2172 36.6814 64.5393 36.7459 64.7755 36.9612C65.0331 37.1334 65.1404 37.4563 65.0546 37.7792Z" fill="#303344"/>
<path d="M65.0546 37.7792C64.2602 41.9123 60.9323 45.1413 56.81 45.8302L56.2518 45.9163L56.0586 46.4329C54.8777 49.5973 51.8289 51.7069 48.4581 51.7069H48.4366C47.9643 51.7069 47.5778 51.3194 47.5778 50.8459C47.5778 50.3723 47.9643 49.9848 48.4366 49.9848C50.5193 49.9848 52.473 48.973 53.6754 47.2724L54.5342 46.067L53.0957 45.7656C51.0131 45.3135 49.1666 44.2587 47.7281 42.6657C47.5778 42.4935 47.5134 42.2998 47.5134 42.0845C47.5134 41.8477 47.6208 41.6109 47.7925 41.4387C48.1575 41.1158 48.6943 41.1374 49.0163 41.5033C51.8719 44.5601 56.445 45.0767 59.9232 42.7519C61.7267 41.5033 62.9505 39.6305 63.3584 37.4563C63.4014 37.1549 63.6161 36.8966 63.9166 36.789C64.2172 36.6814 64.5393 36.7459 64.7755 36.9612C65.0331 37.1334 65.1404 37.4563 65.0546 37.7792Z" fill="black" fill-opacity="0.2"/>
<path d="M48.222 30.2664C48.222 30.74 47.8356 31.1275 47.3632 31.1275C45.8389 31.1275 44.4004 31.7302 43.3054 32.8065C42.2104 33.8829 41.6307 35.3467 41.6307 36.8751C41.6307 37.3487 41.2442 37.7361 40.7719 37.7361C40.5357 37.7361 40.321 37.65 40.1707 37.4778C39.999 37.3056 39.9131 37.0903 39.9131 36.8751C39.9131 32.742 43.2624 29.4053 47.3847 29.3838C47.8356 29.3838 48.222 29.7713 48.222 30.2664Z" fill="#303344"/>
<path d="M48.222 30.2664C48.222 30.74 47.8356 31.1275 47.3632 31.1275C45.8389 31.1275 44.4004 31.7302 43.3054 32.8065C42.2104 33.8829 41.6307 35.3467 41.6307 36.8751C41.6307 37.3487 41.2442 37.7361 40.7719 37.7361C40.5357 37.7361 40.321 37.65 40.1707 37.4778C39.999 37.3056 39.9131 37.0903 39.9131 36.8751C39.9131 32.742 43.2624 29.4053 47.3847 29.3838C47.8356 29.3838 48.222 29.7713 48.222 30.2664Z" fill="black" fill-opacity="0.2"/>
<path d="M54.0834 0.861065V2.69083C54.0834 3.16441 53.697 3.55189 53.2246 3.55189C52.7523 3.55189 52.3658 3.16441 52.3658 2.69083V0.861065C52.3658 0.387479 52.7523 0 53.2246 0C53.697 0 54.0834 0.387479 54.0834 0.861065Z" fill="#303344"/>
<path d="M54.0834 0.861065V2.69083C54.0834 3.16441 53.697 3.55189 53.2246 3.55189C52.7523 3.55189 52.3658 3.16441 52.3658 2.69083V0.861065C52.3658 0.387479 52.7523 0 53.2246 0C53.697 0 54.0834 0.387479 54.0834 0.861065Z" fill="black" fill-opacity="0.2"/>
<path d="M85.1937 14.1214L83.3473 15.9727C83.1326 16.188 82.8105 16.2956 82.5099 16.2095C82.2093 16.1234 81.9732 15.8866 81.8873 15.5853C81.8014 15.2839 81.8873 14.961 82.1235 14.7242L83.9484 12.8944H83.9699C84.1417 12.7222 84.3564 12.6361 84.5925 12.6361C84.6569 12.6361 84.7428 12.6361 84.8072 12.6576C85.1078 12.7437 85.344 12.9805 85.4299 13.2819C85.5158 13.5618 85.4299 13.8847 85.1937 14.1214Z" fill="#303344"/>
<path d="M85.1937 14.1214L83.3473 15.9727C83.1326 16.188 82.8105 16.2956 82.5099 16.2095C82.2093 16.1234 81.9732 15.8866 81.8873 15.5853C81.8014 15.2839 81.8873 14.961 82.1235 14.7242L83.9484 12.8944H83.9699C84.1417 12.7222 84.3564 12.6361 84.5925 12.6361C84.6569 12.6361 84.7428 12.6361 84.8072 12.6576C85.1078 12.7437 85.344 12.9805 85.4299 13.2819C85.5158 13.5618 85.4299 13.8847 85.1937 14.1214Z" fill="black" fill-opacity="0.2"/>
<path d="M24.4974 15.6714C24.3686 15.9943 24.0465 16.2096 23.703 16.2096C23.4668 16.2096 23.2521 16.1235 23.1018 15.9512L21.2554 14.1C21.0192 13.8847 20.9334 13.5618 21.0192 13.2604C21.1051 12.959 21.3413 12.7223 21.6419 12.6362C21.7063 12.6146 21.7922 12.6146 21.8566 12.6146C22.0928 12.6146 22.3075 12.7007 22.5007 12.8945L24.3256 14.7242C24.5618 14.9826 24.6262 15.3485 24.4974 15.6714Z" fill="#303344"/>
<path d="M24.4974 15.6714C24.3686 15.9943 24.0465 16.2096 23.703 16.2096C23.4668 16.2096 23.2521 16.1235 23.1018 15.9512L21.2554 14.1C21.0192 13.8847 20.9334 13.5618 21.0192 13.2604C21.1051 12.959 21.3413 12.7223 21.6419 12.6362C21.7063 12.6146 21.7922 12.6146 21.8566 12.6146C22.0928 12.6146 22.3075 12.7007 22.5007 12.8945L24.3256 14.7242C24.5618 14.9826 24.6262 15.3485 24.4974 15.6714Z" fill="black" fill-opacity="0.2"/>
<path d="M38.6033 7.94331C38.5174 8.15857 38.3456 8.33079 38.1309 8.41689C38.0236 8.45995 37.9162 8.48147 37.7874 8.48147C37.4439 8.48147 37.1218 8.26621 36.993 7.94331L34.8889 2.81997C34.7601 2.54013 34.8031 2.1957 34.9963 1.93738C35.1681 1.72212 35.4257 1.59296 35.6833 1.59296C35.7263 1.59296 35.7692 1.59296 35.8122 1.59296C36.1127 1.63601 36.3919 1.85128 36.4992 2.15265L38.6033 7.25446C38.6892 7.49125 38.6892 7.72804 38.6033 7.94331Z" fill="#303344"/>
<path d="M38.6033 7.94331C38.5174 8.15857 38.3456 8.33079 38.1309 8.41689C38.0236 8.45995 37.9162 8.48147 37.7874 8.48147C37.4439 8.48147 37.1218 8.26621 36.993 7.94331L34.8889 2.81997C34.7601 2.54013 34.8031 2.1957 34.9963 1.93738C35.1681 1.72212 35.4257 1.59296 35.6833 1.59296C35.7263 1.59296 35.7692 1.59296 35.8122 1.59296C36.1127 1.63601 36.3919 1.85128 36.4992 2.15265L38.6033 7.25446C38.6892 7.49125 38.6892 7.72804 38.6033 7.94331Z" fill="black" fill-opacity="0.2"/>
<path d="M71.5601 2.86304L69.4561 7.96485C69.3916 8.13706 69.2843 8.26622 69.134 8.35233C69.0052 8.43843 68.8334 8.50301 68.6617 8.50301C68.5543 8.50301 68.4255 8.48149 68.3396 8.43843C68.1249 8.35233 67.9531 8.18012 67.8673 7.96485C67.7814 7.74958 67.7814 7.51279 67.8673 7.29752L69.9713 2.21724C70.1002 1.87282 70.4437 1.67908 70.7657 1.67908C70.8731 1.67908 70.9804 1.7006 71.0878 1.74366C71.3025 1.82976 71.4743 2.00198 71.5601 2.21724C71.646 2.41098 71.646 2.64777 71.5601 2.86304Z" fill="#303344"/>
<path d="M71.5601 2.86304L69.4561 7.96485C69.3916 8.13706 69.2843 8.26622 69.134 8.35233C69.0052 8.43843 68.8334 8.50301 68.6617 8.50301C68.5543 8.50301 68.4255 8.48149 68.3396 8.43843C68.1249 8.35233 67.9531 8.18012 67.8673 7.96485C67.7814 7.74958 67.7814 7.51279 67.8673 7.29752L69.9713 2.21724C70.1002 1.87282 70.4437 1.67908 70.7657 1.67908C70.8731 1.67908 70.9804 1.7006 71.0878 1.74366C71.3025 1.82976 71.4743 2.00198 71.5601 2.21724C71.646 2.41098 71.646 2.64777 71.5601 2.86304Z" fill="black" fill-opacity="0.2"/>
<path d="M96.4011 27.4895C96.3582 27.7909 96.165 28.0707 95.8644 28.1783L90.776 30.2879C90.6686 30.331 90.5612 30.3525 90.4539 30.3525C90.046 30.3525 89.681 30.0511 89.5951 29.6637C89.5092 29.2547 89.7239 28.8457 90.1104 28.695L95.1988 26.5854C95.3062 26.5423 95.4135 26.5208 95.5209 26.5208C95.7141 26.5208 95.8859 26.5854 96.0576 26.693C96.3153 26.8867 96.4441 27.1881 96.4011 27.4895Z" fill="#303344"/>
<path d="M96.4011 27.4895C96.3582 27.7909 96.165 28.0707 95.8644 28.1783L90.776 30.2879C90.6686 30.331 90.5612 30.3525 90.4539 30.3525C90.046 30.3525 89.681 30.0511 89.5951 29.6637C89.5092 29.2547 89.7239 28.8457 90.1104 28.695L95.1988 26.5854C95.3062 26.5423 95.4135 26.5208 95.5209 26.5208C95.7141 26.5208 95.8859 26.5854 96.0576 26.693C96.3153 26.8867 96.4441 27.1881 96.4011 27.4895Z" fill="black" fill-opacity="0.2"/>
<path d="M16.7896 29.8144C16.6178 30.2664 16.1026 30.4602 15.6517 30.2879L10.5632 28.1783C10.3485 28.0922 10.1768 27.92 10.0909 27.7048C10.005 27.4895 10.005 27.2527 10.0909 27.0374C10.1768 26.8222 10.3485 26.65 10.5632 26.5638C10.6706 26.5208 10.7779 26.4993 10.8853 26.4993C10.9926 26.4993 11.1215 26.5208 11.2073 26.5638L16.2958 28.6735C16.5105 28.7596 16.6822 28.9318 16.7681 29.147C16.8755 29.3623 16.8755 29.5991 16.7896 29.8144Z" fill="#303344"/>
<path d="M16.7896 29.8144C16.6178 30.2664 16.1026 30.4602 15.6517 30.2879L10.5632 28.1783C10.3485 28.0922 10.1768 27.92 10.0909 27.7048C10.005 27.4895 10.005 27.2527 10.0909 27.0374C10.1768 26.8222 10.3485 26.65 10.5632 26.5638C10.6706 26.5208 10.7779 26.4993 10.8853 26.4993C10.9926 26.4993 11.1215 26.5208 11.2073 26.5638L16.2958 28.6735C16.5105 28.7596 16.6822 28.9318 16.7681 29.147C16.8755 29.3623 16.8755 29.5991 16.7896 29.8144Z" fill="black" fill-opacity="0.2"/>
</g>
<defs>
<clipPath id="clip0_4_1251">
<rect width="106.449" height="106.449" fill="white"/>
</clipPath>
</defs>
</svg>
