<svg width="13" height="18" viewBox="0 0 13 18" fill="none" xmlns="http://www.w3.org/2000/svg">
<path opacity="0.3" d="M1.61304 15.8558H11.2916V7.79028H1.61304V15.8558ZM6.45232 10.2099C7.33952 10.2099 8.06542 10.9358 8.06542 11.823C8.06542 12.7102 7.33952 13.4361 6.45232 13.4361C5.56512 13.4361 4.83923 12.7102 4.83923 11.823C4.83923 10.9358 5.56512 10.2099 6.45232 10.2099Z" fill="#B1B1B1" fill-opacity="0.6"/>
<path d="M11.2917 6.17708H10.4851V4.56399C10.4851 2.33792 8.67845 0.53125 6.45238 0.53125C4.22631 0.53125 2.41964 2.33792 2.41964 4.56399V6.17708H1.6131C0.725893 6.17708 0 6.90298 0 7.79018V15.8557C0 16.7429 0.725893 17.4688 1.6131 17.4688H11.2917C12.1789 17.4688 12.9048 16.7429 12.9048 15.8557V7.79018C12.9048 6.90298 12.1789 6.17708 11.2917 6.17708ZM4.03274 4.56399C4.03274 3.22512 5.11351 2.14435 6.45238 2.14435C7.79125 2.14435 8.87202 3.22512 8.87202 4.56399V6.17708H4.03274V4.56399ZM11.2917 15.8557H1.6131V7.79018H11.2917V15.8557ZM6.45238 13.436C7.33958 13.436 8.06548 12.7101 8.06548 11.8229C8.06548 10.9357 7.33958 10.2098 6.45238 10.2098C5.56518 10.2098 4.83929 10.9357 4.83929 11.8229C4.83929 12.7101 5.56518 13.436 6.45238 13.436Z" fill="#B1B1B1" fill-opacity="0.6"/>
</svg>
